PathFileType	4	(X/Y/Z)	C:/Users/opensim2020/Desktop/walking_exp_matlab/subject03_walking08_straight_01.trc	
DataRate	CameraRate	NumFrames	NumMarkers	Units	OrigDataRate	OrigDataStartFrame	OrigNumFrames	
100.00	100.00	4	51	mm	100.00	708	451	
Frame#	Time	LFHD			RFHD			LBHD			RBHD			C7			T10			CLAV			STRN			RBAK			LSHO			LUPA			LELB			LFRM			LWRA			LWRB			LFIN			RSHO			RUPA			RELB			RFRM			RWRA			RWRB			RFIN			LASI			RASI			LPSI			RPSI			LTHI			LKNE			LTIB			LANK			LHEE			LTOE			RTHI			RKNE			RTIB			RANK			RHEE			RTOE			*39			*40			*41			*42			*43			*44			*45			*46			*47			*48			*49			*50			
		X1	Y1	Z1	X2	Y2	Z2	X3	Y3	Z3	X4	Y4	Z4	X5	Y5	Z5	X6	Y6	Z6	X7	Y7	Z7	X8	Y8	Z8	X9	Y9	Z9	X10	Y10	Z10	X11	Y11	Z11	X12	Y12	Z12	X13	Y13	Z13	X14	Y14	Z14	X15	Y15	Z15	X16	Y16	Z16	X17	Y17	Z17	X18	Y18	Z18	X19	Y19	Z19	X20	Y20	Z20	X21	Y21	Z21	X22	Y22	Z22	X23	Y23	Z23	X24	Y24	Z24	X25	Y25	Z25	X26	Y26	Z26	X27	Y27	Z27	X28	Y28	Z28	X29	Y29	Z29	X30	Y30	Z30	X31	Y31	Z31	X32	Y32	Z32	X33	Y33	Z33	X34	Y34	Z34	X35	Y35	Z35	X36	Y36	Z36	X37	Y37	Z37	X38	Y38	Z38	X39	Y39	Z39	X40	Y40	Z40	X41	Y41	Z41	X42	Y42	Z42	X43	Y43	Z43	X44	Y44	Z44	X45	Y45	Z45	X46	Y46	Z46	X47	Y47	Z47	X48	Y48	Z48	X49	Y49	Z49	X50	Y50	Z50	X51	Y51	Z51	

226	2.250	-1060.82166	-128.40189	1607.84839	-927.72009	-138.47798	1614.74097	-1064.01672	-252.77341	1555.04761	-933.11823	-257.63065	1561.89319	-993.95221	-282.30960	1405.44348	-986.54535	-333.05548	1096.54724	-1001.02490	-163.10417	1324.40784	-1006.27838	-131.64990	1155.94873	-886.76538	-332.91510	1237.69958	-1154.65625	-216.98424	1360.75037	-1219.69177	-243.32945	1161.88232	-1230.41235	-244.71094	1038.69336	-1232.05786	-216.39175	911.56500	-1202.99866	-187.76350	795.45422	-1248.23206	-220.54417	798.15570	-1238.79602	-199.80266	716.17023	-839.32489	-189.78104	1351.09021	-765.29150	-159.46527	1132.00537	-755.45215	-124.78084	1024.48706	-763.73590	-79.39684	895.62299	-810.46771	-37.01165	810.84790	-761.53174	-56.14326	798.06384	-780.47980	-19.69149	735.25684	-1108.88867	-176.08499	925.53705	-871.98767	-167.54205	925.32574	-1056.52197	-337.75687	945.99176	-906.91772	-329.11230	960.24512	-1159.40820	-175.70764	625.52155	-1117.50964	-110.78799	460.92712	-1124.28699	-98.80310	272.34354	-1097.67615	-39.45866	67.94638	-1056.17505	-65.97292	26.46656	-1087.05334	115.53417	62.20307	-834.85242	-257.72687	635.52197	-869.86688	-277.44354	456.66931	-867.69446	-363.88947	282.98520	-918.12231	-437.82071	78.01105	-968.56586	-486.98065	51.31936	-935.66449	-301.01849	30.72405	-1017.53101	-218.37604	1661.78174																																	 
227	2.260	-1062.17358	-121.68314	1607.42444	-929.05585	-131.94904	1614.36682	-1065.36206	-245.96147	1554.29041	-934.46466	-251.01347	1561.27905	-995.36267	-275.25656	1404.79980	-987.94305	-325.87723	1095.88269	-1002.12939	-155.87108	1323.89343	-1007.18835	-124.26553	1155.46008	-888.29590	-326.02393	1237.05920	-1155.96765	-209.50455	1360.15540	-1220.48682	-236.09352	1161.08545	-1230.84778	-237.77206	1037.87000	-1232.09631	-210.44727	910.43939	-1202.72278	-182.89702	794.06702	-1247.99255	-215.71680	797.00433	-1238.20886	-195.74278	714.79767	-840.39069	-183.08595	1350.56860	-766.69080	-153.45857	1131.21741	-756.95380	-119.17668	1023.57111	-765.58514	-74.09757	894.63983	-812.45477	-31.81208	809.81207	-763.57581	-51.03028	796.95642	-782.73871	-14.78289	734.11359	-1109.72400	-168.29329	924.82092	-872.63214	-160.78632	924.62494	-1057.89941	-330.22220	945.45819	-908.12421	-322.53677	959.66394	-1159.23425	-168.83115	624.76526	-1117.71838	-104.58900	460.32422	-1124.58777	-93.84431	271.17566	-1097.78711	-35.27231	66.65788	-1056.91321	-62.88603	26.79965	-1086.60083	119.56123	59.39991	-835.38470	-252.10445	635.13214	-869.93872	-272.40585	456.28918	-867.75275	-360.92764	283.41757	-917.93066	-436.92340	79.03536	-968.44659	-486.25378	52.90351	-935.51544	-300.83694	30.65228	-1018.97992	-211.77524	1661.14746																																	 
228	2.270	-1063.44250	-114.87571	1606.95776	-930.32996	-125.37705	1614.01416	-1066.80688	-239.07426	1553.61523	-935.92621	-244.30200	1560.66589	-996.83997	-268.12683	1404.20874	-989.50464	-318.42883	1095.27515	-1003.25812	-148.50810	1323.46313	-1008.09094	-116.83042	1155.03625	-889.92401	-319.08865	1236.49158	-1157.23840	-201.86623	1359.58118	-1221.39490	-228.77628	1160.38293	-1231.29883	-230.84096	1037.05945	-1232.24121	-204.37788	909.46973	-1202.60193	-177.80597	792.85901	-1247.94885	-210.53406	795.96796	-1237.77795	-191.52031	713.56616	-841.61133	-176.33472	1350.08923	-768.10980	-147.45309	1130.49731	-758.53577	-113.55058	1022.68695	-767.32281	-68.93542	893.56342	-814.34723	-26.75325	808.77429	-765.65051	-46.31305	795.83594	-784.79047	-10.13059	732.95056	-1110.43665	-160.37219	924.21906	-873.42389	-153.88185	923.97711	-1059.34924	-322.65271	945.12555	-909.61835	-315.27545	958.90247	-1159.32532	-161.65630	624.08557	-1118.19739	-98.90643	458.74460	-1124.78418	-89.48437	269.90741	-1097.61060	-32.89317	65.06443	-1056.86914	-61.63313	26.35199	-1085.84094	122.07825	53.97897	-835.92932	-246.36932	634.78058	-870.02142	-267.22534	455.90314	-867.80310	-357.81531	283.88388	-917.46991	-436.42117	80.33321	-967.92596	-486.14316	54.83769	-935.51489	-300.63495	30.43119	-1020.57758	-205.16531	1660.63501																																	 
229	2.280	-1064.70190	-108.06625	1606.68359	-931.72943	-118.63750	1613.87793	-1068.25159	-232.11995	1553.04626	-937.38751	-237.55891	1560.17322	-998.46912	-260.95026	1403.76343	-991.07941	-310.96692	1094.81299	-1004.46082	-141.07098	1323.16809	-1009.10822	-109.19992	1154.75061	-891.66077	-312.10632	1236.09851	-1158.70789	-194.08131	1359.16272	-1222.33020	-221.33389	1159.80420	-1231.93274	-223.76552	1036.40125	-1232.45398	-198.13663	908.57404	-1202.50940	-172.49281	791.80609	-1247.93970	-205.15190	795.10852	-1237.45898	-187.06970	712.43134	-842.87201	-169.55014	1349.70630	-769.57037	-141.40013	1129.89905	-760.11768	-107.96743	1021.88165	-769.06757	-63.85232	892.62720	-816.10187	-21.93490	807.71710	-767.34814	-41.77843	794.79205	-786.74945	-5.71789	731.69421	-1111.10913	-152.35893	923.77570	-874.03754	-147.01492	923.30499	-1060.90234	-314.91040	944.98883	-910.95337	-308.44611	958.46674	-1160.01855	-153.90860	623.65875	-1118.72083	-92.93185	457.89987	-1124.68774	-85.55399	268.85486	-1097.29150	-31.47928	63.95976	-1056.08350	-61.51535	26.56043	-1084.46619	123.60004	45.70129	-836.50446	-240.45155	634.39197	-870.26642	-261.87357	455.52890	-867.84076	-354.50110	284.40176	-917.08588	-435.60928	81.66952	-967.60956	-485.40808	56.75197	-935.43176	-300.41086	30.30489	-1022.04926	-198.56369	1660.15564																																	 
